# xmcd
#
# Track frame offsets:
#	150
#	13295
#	28413
#	42122
#	55220
#	67389
#	80663
#	94925
#	107329
#	120121
#	135615
#	148207
#
# Disc length: 2192 seconds
#
# Revision: 0
# Processed by: cddbd v1.5.2PL0 Copyright (c) Steve Scherf et al.
# Submitted via: EZCDAudioConverter 2.8.0.1
#
DISCID=ac088e0c
DTITLE=Paula Mattos - Acústico
DYEAR=2015
DGENRE=
TTITLE0=Tem Que Ser Agora
TTITLE1=Rosa Amarela
TTITLE2=Quêm Vê Cara Não Ve Coração
TTITLE3=Eu Ja Te Amava (Thaeme E Thiago)
TTITLE4=Farol Fechado
TTITLE5=Amor É Diferente (Zé Felipe)
TTITLE6=Quanto Tempo Falta
TTITLE7=O Povo Fala (Munhoz E Mariano)
TTITLE8=Pros Outros
TTITLE9=Que Sorte A Nossa (Fernando Paloni)
TTITLE10=Deixa Que Eu Cuido Da Gente (Bônus)
TTITLE11=30 Anos ( Bônus)
EXTD=
EXTT0=
EXTT1=
EXTT2=
EXTT3=
EXTT4=
EXTT5=
EXTT6=
EXTT7=
EXTT8=
EXTT9=
EXTT10=
EXTT11=
PLAYORDER=
